<svg version="1.1" id="Layer_1" xmlns="http://www.w3.org/2000/svg" xmlns:xlink="http://www.w3.org/1999/xlink" viewBox="0 0 512 512" xml:space="preserve" fill="#000000"><g id="SVGRepo_bgCarrier" stroke-width="0"></g><g id="SVGRepo_tracerCarrier" stroke-linecap="round" stroke-linejoin="round"></g><g id="SVGRepo_iconCarrier"> <rect x="15.673" y="39.278" style="fill:#2a2c2d;" width="480.653" height="433.445"></rect> <path style="fill:#2d5f8b;" d="M0,23.604v464.791h512V23.604H0z M480.653,457.049H31.347V54.951h449.306V457.049z"></path> <rect x="256" y="39.278" style="fill:#2a2c2d;" width="240.327" height="433.445"></rect> <polygon style="fill:#2d5f8b;" points="512,23.604 512,488.396 256,488.396 256,457.049 480.653,457.049 480.653,54.951 256,54.951 256,23.604 "></polygon> <rect y="23.604" style="fill:#5f574e;" width="512" height="87.761"></rect> <rect x="256" y="23.604" style="fill:#5f574e;" width="256" height="87.761"></rect> <rect x="397.646" y="23.604" style="fill:#8A6746;" width="114.354" height="87.761"></rect> <polygon style="fill:#FD7052;" points="411.031,418.795 100.968,418.795 256,140.8 "></polygon> <g> <rect x="240.327" y="258.926" style="fill:#FFFFFF;" width="31.347" height="71.074"></rect> <rect x="240.327" y="345.401" style="fill:#FFFFFF;" width="31.347" height="25.673"></rect> </g> <polygon style="fill:#FF4F18;" points="256,140.8 411.031,418.795 256,418.795 "></polygon> <g> <rect x="256" y="258.926" style="fill:#D9D8DB;" width="15.673" height="71.074"></rect> <rect x="256" y="345.401" style="fill:#D9D8DB;" width="15.673" height="25.673"></rect> </g> <g> <rect x="421.794" y="59.037" style="fill:#FFFFFF;" width="13.932" height="13.932"></rect> <rect x="448.899" y="59.037" style="fill:#FFFFFF;" width="13.932" height="13.932"></rect> <rect x="476.014" y="59.037" style="fill:#FFFFFF;" width="13.932" height="13.932"></rect> </g> </g></svg>
